<?xml version="1.0" encoding="UTF-8"?>
<svg width="24px" height="24px" viewBox="0 0 24 24" version="1.1" xmlns="http://www.w3.org/2000/svg" xmlns:xlink="http://www.w3.org/1999/xlink">
    <title>icon-chat</title>
    <defs>
        <path d="M7.19999998,13.6 L5.59999998,13.6 C4.71634438,13.6 3.99999997,12.8836556 3.99999997,12 L3.99999997,5.59999998 C3.99999997,4.71999998 4.71999998,3.99999997 5.59999998,3.99999997 L15.2,3.99999997 C16.0836556,3.99999997 16.8,4.71634438 16.8,5.59999998 L16.8,7.19999998 L18.4,7.19999998 C19.2836556,7.19999998 20,7.91634439 20,8.79999999 L20,19.2 C19.995504,19.5200602 19.8006606,19.8066307 19.5046788,19.9285056 C19.208697,20.0503805 18.8685603,19.9840958 18.64,19.76 L15.664,16.8 L8.79999999,16.8 C7.91634439,16.8 7.19999998,16.0836556 7.19999998,15.2 L7.19999998,13.6 Z M7.19999998,12 L7.19999998,8.79999999 C7.19999998,7.91999999 7.91999999,7.19999998 8.79999999,7.19999998 L15.2,7.19999998 L15.2,5.59999998 L5.59999998,5.59999998 L5.59999998,12 L7.19999998,12 Z M18.4,8.79999999 L8.79999999,8.79999999 L8.79999999,15.2 L16,15.2 C16.2110154,15.2030056 16.4122956,15.2892686 16.56,15.44 L18.4,17.272 L18.4,8.79999999 Z" id="path-1"></path>
    </defs>
    <g id="icon-chat" stroke="none" stroke-width="1" fill="none" fill-rule="evenodd">
        <mask id="mask-2" fill="white">
            <use xlink:href="#path-1"></use>
        </mask>
        <g fill-rule="nonzero"></g>
        <g id="Group" mask="url(#mask-2)" fill="#339933">
            <g id="🎨-color">
                <rect id="Rectangle" x="0" y="0" width="189" height="64.8"></rect>
            </g>
        </g>
    </g>
</svg>